<mxfile host="app.diagrams.net" agent="Mozilla/5.0 (Windows NT 10.0; Win64; x64) AppleWebKit/537.36 (KHTML, like Gecko) Chrome/127.0.0.0 Safari/537.36" version="24.7.10">
  <diagram name="Page-1" id="HqDqDKwv-rrrGrvDr0yS">
    <mxGraphModel dx="1050" dy="541" grid="1" gridSize="10" guides="1" tooltips="1" connect="1" arrows="1" fold="1" page="1" pageScale="1" pageWidth="850" pageHeight="1100" math="0" shadow="0">
      <root>
        <mxCell id="0" />
        <mxCell id="1" parent="0" />
        <mxCell id="y2waDKwwfr2qgySeQc0V-3" value="" style="edgeStyle=orthogonalEdgeStyle;rounded=0;orthogonalLoop=1;jettySize=auto;html=1;" edge="1" parent="1" source="y2waDKwwfr2qgySeQc0V-1" target="y2waDKwwfr2qgySeQc0V-2">
          <mxGeometry relative="1" as="geometry" />
        </mxCell>
        <mxCell id="y2waDKwwfr2qgySeQc0V-1" value="Start" style="ellipse;whiteSpace=wrap;html=1;fillColor=#d5e8d4;strokeColor=#82b366;" vertex="1" parent="1">
          <mxGeometry x="365" y="20" width="120" height="80" as="geometry" />
        </mxCell>
        <mxCell id="y2waDKwwfr2qgySeQc0V-5" value="" style="edgeStyle=orthogonalEdgeStyle;rounded=0;orthogonalLoop=1;jettySize=auto;html=1;" edge="1" parent="1" source="y2waDKwwfr2qgySeQc0V-2" target="y2waDKwwfr2qgySeQc0V-4">
          <mxGeometry relative="1" as="geometry" />
        </mxCell>
        <mxCell id="y2waDKwwfr2qgySeQc0V-2" value="&lt;p style=&quot;&quot;&gt;&lt;font style=&quot;font-size: 12px;&quot; face=&quot;Helvetica&quot;&gt;Declarations:&lt;br&gt;&lt;/font&gt;&lt;/p&gt;&lt;div style=&quot;text-align: left;&quot;&gt;&lt;font style=&quot;font-size: 12px;&quot; face=&quot;Helvetica&quot;&gt;&lt;span style=&quot;font-family: KGBTRnSLHBeSVE9yw33E; background-color: initial;&quot;&gt;&lt;u&gt;Variables&lt;/u&gt;:&amp;nbsp;&lt;/span&gt;&lt;/font&gt;&lt;/div&gt;&lt;div style=&quot;text-align: left;&quot;&gt;&lt;font style=&quot;font-size: 12px;&quot; face=&quot;Helvetica&quot;&gt;&lt;span style=&quot;font-family: KGBTRnSLHBeSVE9yw33E; background-color: initial;&quot;&gt;laborCostPerHour = 30&lt;/span&gt;&lt;/font&gt;&lt;/div&gt;&lt;div style=&quot;text-align: left;&quot;&gt;&lt;font style=&quot;font-size: 12px;&quot; face=&quot;Helvetica&quot;&gt;&lt;span style=&quot;font-family: KGBTRnSLHBeSVE9yw33E; background-color: initial;&quot;&gt;wholesaleCostOfMaterials = 0&lt;/span&gt;&lt;/font&gt;&lt;/div&gt;&lt;div style=&quot;text-align: left;&quot;&gt;&lt;font style=&quot;font-size: 12px;&quot; face=&quot;Helvetica&quot;&gt;&lt;span style=&quot;font-family: KGBTRnSLHBeSVE9yw33E; background-color: initial;&quot;&gt;projectedHours = 0&lt;/span&gt;&lt;/font&gt;&lt;/div&gt;&lt;div style=&quot;text-align: left;&quot;&gt;&lt;font style=&quot;font-size: 12px;&quot; face=&quot;Helvetica&quot;&gt;&lt;span style=&quot;font-family: KGBTRnSLHBeSVE9yw33E; background-color: initial;&quot;&gt;totalCost = 0&lt;/span&gt;&lt;/font&gt;&lt;/div&gt;&lt;div style=&quot;text-align: left;&quot;&gt;&lt;font style=&quot;font-size: 12px;&quot; face=&quot;Helvetica&quot;&gt;&lt;span style=&quot;font-family: KGBTRnSLHBeSVE9yw33E; background-color: initial;&quot;&gt;materialCostWithMarkup = 0&lt;/span&gt;&lt;/font&gt;&lt;/div&gt;&lt;div style=&quot;text-align: left;&quot;&gt;&lt;font style=&quot;font-size: 12px;&quot; face=&quot;Helvetica&quot;&gt;&lt;span style=&quot;font-family: KGBTRnSLHBeSVE9yw33E; background-color: initial;&quot;&gt;&lt;br&gt;&lt;/span&gt;&lt;/font&gt;&lt;/div&gt;&lt;code&gt;&lt;font style=&quot;font-size: 12px;&quot;&gt;&lt;div style=&quot;text-align: left;&quot;&gt;&lt;span style=&quot;font-family: KGBTRnSLHBeSVE9yw33E; background-color: initial;&quot;&gt;&lt;u&gt;Constants&lt;/u&gt;:&lt;/span&gt;&lt;/div&gt;&lt;div style=&quot;text-align: left;&quot;&gt;&lt;span style=&quot;font-family: KGBTRnSLHBeSVE9yw33E; background-color: initial;&quot;&gt;Material_Markup_Percentage = 120/100&lt;/span&gt;&lt;/div&gt;&lt;/font&gt;&lt;/code&gt;&lt;p&gt;&lt;/p&gt;" style="rounded=0;whiteSpace=wrap;html=1;align=center;fillColor=#e1d5e7;strokeColor=#9673a6;" vertex="1" parent="1">
          <mxGeometry x="305" y="140" width="240" height="210" as="geometry" />
        </mxCell>
        <mxCell id="y2waDKwwfr2qgySeQc0V-7" value="" style="edgeStyle=orthogonalEdgeStyle;rounded=0;orthogonalLoop=1;jettySize=auto;html=1;" edge="1" parent="1" source="y2waDKwwfr2qgySeQc0V-4" target="y2waDKwwfr2qgySeQc0V-6">
          <mxGeometry relative="1" as="geometry" />
        </mxCell>
        <mxCell id="y2waDKwwfr2qgySeQc0V-4" value="User inputs projected number of hours for job" style="shape=parallelogram;perimeter=parallelogramPerimeter;whiteSpace=wrap;html=1;fixedSize=1;fillColor=#fff2cc;strokeColor=#d6b656;" vertex="1" parent="1">
          <mxGeometry x="283" y="380" width="285" height="60" as="geometry" />
        </mxCell>
        <mxCell id="y2waDKwwfr2qgySeQc0V-9" value="" style="edgeStyle=orthogonalEdgeStyle;rounded=0;orthogonalLoop=1;jettySize=auto;html=1;" edge="1" parent="1" source="y2waDKwwfr2qgySeQc0V-6" target="y2waDKwwfr2qgySeQc0V-8">
          <mxGeometry relative="1" as="geometry" />
        </mxCell>
        <mxCell id="y2waDKwwfr2qgySeQc0V-6" value="User inputs wholesale cost of materials" style="shape=parallelogram;perimeter=parallelogramPerimeter;whiteSpace=wrap;html=1;fixedSize=1;fillColor=#fff2cc;strokeColor=#d6b656;" vertex="1" parent="1">
          <mxGeometry x="300" y="480" width="250" height="60" as="geometry" />
        </mxCell>
        <mxCell id="y2waDKwwfr2qgySeQc0V-11" value="" style="edgeStyle=orthogonalEdgeStyle;rounded=0;orthogonalLoop=1;jettySize=auto;html=1;" edge="1" parent="1" source="y2waDKwwfr2qgySeQc0V-8" target="y2waDKwwfr2qgySeQc0V-10">
          <mxGeometry relative="1" as="geometry" />
        </mxCell>
        <mxCell id="y2waDKwwfr2qgySeQc0V-8" value="laborCost = laborCostPerHour * projectedHours" style="rounded=1;whiteSpace=wrap;html=1;fillColor=#f8cecc;strokeColor=#b85450;" vertex="1" parent="1">
          <mxGeometry x="290.5" y="580" width="270" height="60" as="geometry" />
        </mxCell>
        <mxCell id="y2waDKwwfr2qgySeQc0V-13" value="" style="edgeStyle=orthogonalEdgeStyle;rounded=0;orthogonalLoop=1;jettySize=auto;html=1;" edge="1" parent="1" source="y2waDKwwfr2qgySeQc0V-10" target="y2waDKwwfr2qgySeQc0V-12">
          <mxGeometry relative="1" as="geometry" />
        </mxCell>
        <mxCell id="y2waDKwwfr2qgySeQc0V-10" value="materialCostWithMarkup = wholesaleCostOfMaterials * Material_Markup_Percentage" style="rounded=1;whiteSpace=wrap;html=1;fillColor=#f8cecc;strokeColor=#b85450;" vertex="1" parent="1">
          <mxGeometry x="188" y="690" width="474.5" height="60" as="geometry" />
        </mxCell>
        <mxCell id="y2waDKwwfr2qgySeQc0V-15" value="" style="edgeStyle=orthogonalEdgeStyle;rounded=0;orthogonalLoop=1;jettySize=auto;html=1;" edge="1" parent="1" source="y2waDKwwfr2qgySeQc0V-12" target="y2waDKwwfr2qgySeQc0V-14">
          <mxGeometry relative="1" as="geometry" />
        </mxCell>
        <mxCell id="y2waDKwwfr2qgySeQc0V-12" value="totalCost =laborCost + materialCostWithMarkup" style="rounded=1;whiteSpace=wrap;html=1;fillColor=#f8cecc;strokeColor=#b85450;" vertex="1" parent="1">
          <mxGeometry x="283" y="800" width="285" height="60" as="geometry" />
        </mxCell>
        <mxCell id="y2waDKwwfr2qgySeQc0V-17" value="" style="edgeStyle=orthogonalEdgeStyle;rounded=0;orthogonalLoop=1;jettySize=auto;html=1;" edge="1" parent="1" source="y2waDKwwfr2qgySeQc0V-14" target="y2waDKwwfr2qgySeQc0V-16">
          <mxGeometry relative="1" as="geometry" />
        </mxCell>
        <mxCell id="y2waDKwwfr2qgySeQc0V-14" value="Print Total cost of remodeling project" style="shape=parallelogram;perimeter=parallelogramPerimeter;whiteSpace=wrap;html=1;fixedSize=1;fillColor=#fff2cc;strokeColor=#d6b656;" vertex="1" parent="1">
          <mxGeometry x="305.5" y="910" width="240" height="60" as="geometry" />
        </mxCell>
        <mxCell id="y2waDKwwfr2qgySeQc0V-16" value="End of Program" style="ellipse;whiteSpace=wrap;html=1;fillColor=#d5e8d4;strokeColor=#82b366;" vertex="1" parent="1">
          <mxGeometry x="365.5" y="1000" width="120" height="80" as="geometry" />
        </mxCell>
      </root>
    </mxGraphModel>
  </diagram>
</mxfile>
